# xmcd
#
# Track frame offsets:
#	150
#	13095
#	25675
#	37702
#	50085
#	62480
#	76562
#	90025
#	103820
#	117240
#	132522
#	144295
#	157115
#	171652
#	183577
#	196815
#	209877
#	222492
#	236820
#	251122
#	263400
#	276717
#	288995
#
# Disc length: 4014 seconds
#
# Revision: 0
# Processed by: cddbd v1.5.1PL2 Copyright (c) Steve Scherf et al.
# Submitted via: dBpowerAMP V4.0
#
DISCID=550fac17
DTITLE=Kid Price Moore - Kid Prince Moore 1936 - 1938
DYEAR=1900
DGENRE=blues
TTITLE0=Mississippi Water
TTITLE1=Bite Back Blues
TTITLE2=Pickin' Low Cotton (take 1)
TTITLE3=Pickin' Low Cotton (take 2)
TTITLE4=Bug Juice Blues
TTITLE5=Church Bells
TTITLE6=Sign Of Judgement
TTITLE7=South Bound Blues
TTITLE8=Honey Dripping Blues
TTITLE9=Market Street Rag (take 1)
TTITLE10=Market Street Rag (take 2)
TTITLE11=Talkin' 'Bout The Snuff
TTITLE12=That's Lovin' Me
TTITLE13=Sally Long
TTITLE14=Ford V-8 Blues
TTITLE15=Single Man Blues
TTITLE16=Bear Meat Blues
TTITLE17=Death Of Slim Green
TTITLE18=I'm Through With Love
TTITLE19=Ridin' Dirty Motorsickle
TTITLE20=Tired Of Being Drug Around
TTITLE21=Rain And Snow
TTITLE22=So Cold In China
EXTD=Document DOCD-5180
EXTT0=
EXTT1=
EXTT2=
EXTT3=
EXTT4=
EXTT5=
EXTT6=
EXTT7=
EXTT8=
EXTT9=
EXTT10=
EXTT11=
EXTT12=
EXTT13=
EXTT14=
EXTT15=
EXTT16=
EXTT17=
EXTT18=
EXTT19=
EXTT20=
EXTT21=
EXTT22=
PLAYORDER=
